<?xml version="1.0" encoding="UTF-8" standalone="no"?><!DOCTYPE svg PUBLIC "-//W3C//DTD SVG 1.1//EN" "http://www.w3.org/Graphics/SVG/1.1/DTD/svg11.dtd"><svg width="256" height="128" viewBox="0 0 512 256" version="1.1" xmlns="http://www.w3.org/2000/svg" xmlns:xlink="http://www.w3.org/1999/xlink" xml:space="preserve" style="fill-rule:evenodd;clip-rule:evenodd;stroke-linejoin:round;stroke-miterlimit:1.41421;"><g><g opacity="0.08"><path d="M92.414,0l-18.893,5.991c-4.793,1.511 -8.761,-1.128 -9.424,-5.991l28.317,0Z" style="fill:#808080;"/><path d="M443.935,0c0.043,0.414 0.065,0.828 0.065,1.241l0,116.977c0,5.774 -4.264,9.12 -9.521,7.452l-360.958,-114.454c-4.566,-1.449 -8.383,-6.201 -9.307,-11.216l379.721,0Z" style="fill:#808080;"/><path d="M443.853,0c0.062,0.461 0.094,0.943 0.094,1.442l0,116.966c0,5.784 -4.275,11.832 -9.521,13.5l-360.905,114.433c-5.257,1.668 -9.521,-1.678 -9.521,-7.463l0,-116.966c0,-5.774 4.264,-11.822 9.521,-13.49l341.917,-108.422l28.415,0Z" style="fill:url(#_Linear1);"/></g></g><defs><linearGradient id="_Linear1" x1="0" y1="0" x2="1" y2="0" gradientUnits="userSpaceOnUse" gradientTransform="matrix(32.5352,-106.021,108.79,31.707,273.416,171.607)"><stop offset="0" style="stop-color:#808080;stop-opacity:1"/><stop offset="0.53" style="stop-color:#7a7a7a;stop-opacity:1"/><stop offset="1" style="stop-color:#676767;stop-opacity:1"/></linearGradient></defs></svg>