<?xml version="1.0" encoding="UTF-8" standalone="no"?><!DOCTYPE svg PUBLIC "-//W3C//DTD SVG 1.1//EN" "http://www.w3.org/Graphics/SVG/1.1/DTD/svg11.dtd"><svg width="256" height="128" viewBox="0 0 512 256" version="1.1" xmlns="http://www.w3.org/2000/svg" xmlns:xlink="http://www.w3.org/1999/xlink" xml:space="preserve" style="fill-rule:evenodd;clip-rule:evenodd;stroke-linejoin:round;stroke-miterlimit:1.41421;"><g><g opacity="0.1"><path d="M64.097,256c-0.064,-0.47 -0.097,-0.962 -0.097,-1.472l0,-116.966c0,-5.784 4.264,-11.833 9.521,-13.5l360.905,-114.433c5.246,-1.668 9.521,1.678 9.521,7.463l0,116.966c0,5.774 -4.275,11.822 -9.521,13.49l-342.012,108.452l-28.317,0Z" style="fill:#808080;"/><path d="M64.214,256c-0.14,-0.759 -0.214,-1.524 -0.214,-2.285l0,-116.966c0,-5.784 4.264,-9.12 9.521,-7.452l360.958,114.454c4.881,1.549 8.906,6.874 9.456,12.249l-379.721,0Z" style="fill:#808080;"/><path d="M415.438,256l18.988,-6.021c4.793,-1.514 8.776,1.139 9.427,6.021l-28.415,0Z" style="fill:url(#_Linear1);"/></g></g><defs><linearGradient id="_Linear1" x1="0" y1="0" x2="1" y2="0" gradientUnits="userSpaceOnUse" gradientTransform="matrix(2.43322,-2.76939,8.1361,0.828226,431.1,254.037)"><stop offset="0" style="stop-color:#808080;stop-opacity:1"/><stop offset="0.53" style="stop-color:#7a7a7a;stop-opacity:1"/><stop offset="1" style="stop-color:#676767;stop-opacity:1"/></linearGradient></defs></svg>