<?xml version="1.0" encoding="UTF-8" standalone="no"?><!DOCTYPE svg PUBLIC "-//W3C//DTD SVG 1.1//EN" "http://www.w3.org/Graphics/SVG/1.1/DTD/svg11.dtd"><svg width="100%" height="100%" viewBox="0 0 452 50" version="1.1" xmlns="http://www.w3.org/2000/svg" xmlns:xlink="http://www.w3.org/1999/xlink" xml:space="preserve" style="fill-rule:evenodd;clip-rule:evenodd;stroke-linejoin:round;stroke-miterlimit:1.41421;"><g><g><path d="M72,45.582l0,-10.912l5.29,0l1.209,5.592c0.08,0.403 0.186,0.675 0.317,0.816c0.131,0.141 0.378,0.282 0.741,0.423c2.136,0.605 4.181,0.907 6.136,0.907c0.06,0 0.121,0 0.181,0c6.146,0 9.219,-2.327 9.219,-6.982c0,-1.189 -0.227,-2.222 -0.68,-3.099c-0.453,-0.876 -1.164,-1.602 -2.131,-2.176c-0.967,-0.574 -1.874,-1.028 -2.72,-1.36c-0.847,-0.333 -2.015,-0.7 -3.507,-1.103c-4.05,-1.189 -6.811,-2.267 -8.282,-3.235c-3.184,-2.095 -4.776,-5.33 -4.776,-9.702c0,-4.333 1.477,-7.602 4.429,-9.809c2.952,-2.206 6.806,-3.31 11.561,-3.31c4.091,0 8.071,0.756 11.94,2.267l0,11.154l-5.32,-0.484l-0.877,-5.138c-0.12,-0.625 -0.322,-1.018 -0.604,-1.179c-1.108,-0.665 -2.932,-0.998 -5.471,-0.998c-2.761,0 -4.862,0.57 -6.302,1.708c-1.441,1.139 -2.162,2.716 -2.162,4.731c0,0.906 0.187,1.733 0.56,2.478c0.372,0.746 0.786,1.345 1.239,1.799c0.453,0.453 1.154,0.907 2.101,1.36c0.947,0.453 1.748,0.791 2.403,1.013c0.655,0.221 1.607,0.523 2.856,0.906c1.653,0.504 2.902,0.907 3.748,1.209c0.847,0.303 1.96,0.827 3.34,1.572c1.381,0.746 2.423,1.532 3.129,2.358c0.705,0.826 1.335,1.939 1.889,3.34c0.554,1.4 0.831,2.987 0.831,4.761c0,4.614 -1.557,8.02 -4.67,10.216c-3.113,2.197 -7.148,3.295 -12.106,3.295c-2.599,0 -5.194,-0.257 -7.783,-0.771c-2.589,-0.514 -4.499,-1.063 -5.728,-1.647Z" style="fill:#fff;fill-rule:nonzero;"/><path d="M106.096,19.254l0.574,-4.02l10.7,0l0,20.675c0,2.237 0.282,3.859 0.847,4.867c0.564,1.007 1.662,1.511 3.294,1.511c2.922,0 5.794,-1.441 8.615,-4.322l0,-16.595c0,-0.504 -0.05,-0.836 -0.151,-0.997c-0.101,-0.161 -0.383,-0.282 -0.847,-0.363l-2.962,-0.756l0.544,-4.02l10.549,0l0,26.388c0,0.746 0.262,1.159 0.786,1.239l3.235,0.424l0,3.959l-9.794,0l-0.544,-3.778l-0.181,-0.06c-3.829,3.063 -7.688,4.594 -11.577,4.594c-3.265,0 -5.567,-0.836 -6.907,-2.509c-1.34,-1.672 -2.01,-4.352 -2.01,-8.04l0,-16.081c0,-0.504 -0.055,-0.836 -0.166,-0.997c-0.111,-0.161 -0.388,-0.282 -0.831,-0.363l-3.174,-0.756Z" style="fill:#fff;fill-rule:nonzero;"/><path d="M144.06,4.474l0.605,-3.96l10.791,0l0,17.441c3.506,-2.217 6.882,-3.325 10.126,-3.325c0.02,0 0.05,0 0.091,0c3.627,0 6.503,1.269 8.629,3.808c2.126,2.539 3.189,6.469 3.189,11.789c0,6.105 -1.169,10.594 -3.506,13.466c-2.338,2.871 -5.562,4.307 -9.673,4.307c-3.707,0 -6.791,-1.219 -9.249,-3.657l-0.242,0l-0.363,2.901l-6.861,0c0.524,-2.962 0.786,-5.833 0.786,-8.614c0,-0.101 0,-0.202 0,-0.303l0,-31.375c0,-0.705 -0.262,-1.138 -0.786,-1.3l-3.537,-1.178Zm11.456,34.216c2.519,2.358 5.078,3.537 7.678,3.537c4.615,0 6.922,-3.859 6.922,-11.577c0,-3.305 -0.569,-5.834 -1.708,-7.587c-1.138,-1.753 -2.735,-2.63 -4.791,-2.63c-2.519,0 -5.219,1.018 -8.101,3.053l0,15.204Z" style="fill:#fff;fill-rule:nonzero;"/><path d="M181.783,47.244l0,-3.899l3.537,-0.484c0.403,-0.04 0.67,-0.146 0.801,-0.317c0.131,-0.171 0.196,-0.479 0.196,-0.922l0,-34.67c0,-0.705 -0.272,-1.138 -0.816,-1.3l-3.536,-1.178l0.634,-3.96l10.822,0l0,41.108c0,0.504 0.055,0.826 0.166,0.967c0.111,0.141 0.388,0.232 0.831,0.272l3.476,0.424l0,3.959l-16.111,0Z" style="fill:#fff;fill-rule:nonzero;"/><path d="M201.463,47.244l0,-3.899l3.718,-0.484c0.403,-0.04 0.67,-0.146 0.801,-0.317c0.131,-0.171 0.197,-0.479 0.197,-0.922l0,-19.949c0,-0.706 -0.272,-1.139 -0.816,-1.3l-3.416,-1.179l0.635,-3.96l10.7,0l0,26.388c0,0.504 0.056,0.826 0.166,0.967c0.111,0.141 0.388,0.232 0.832,0.272l3.657,0.424l0,3.959l-16.474,0Zm2.842,-42.71c0,-1.451 0.403,-2.569 1.209,-3.355c0.806,-0.786 1.955,-1.179 3.446,-1.179c1.451,0 2.589,0.393 3.415,1.179c0.827,0.786 1.24,1.904 1.24,3.355c0,1.491 -0.413,2.635 -1.24,3.431c-0.826,0.796 -1.964,1.194 -3.415,1.194c-1.491,0 -2.64,-0.398 -3.446,-1.194c-0.806,-0.796 -1.209,-1.94 -1.209,-3.431Z" style="fill:#fff;fill-rule:nonzero;"/><path d="M221,19.194l0.635,-3.96l9.158,0l0.484,3.476l0.272,0.061c3.627,-2.761 7.154,-4.141 10.579,-4.141c3.507,0 5.965,1.239 7.376,3.718c3.828,-2.479 7.415,-3.718 10.76,-3.718c3.265,0 5.597,0.907 6.998,2.72c1.4,1.814 2.101,4.433 2.101,7.859l0,16.413c0,0.504 0.05,0.826 0.151,0.967c0.101,0.141 0.383,0.232 0.846,0.272l3.386,0.424l0,3.959l-15.718,0l0,-3.899l3.234,-0.423c0.665,-0.081 0.987,-0.494 0.967,-1.239l0,-14.57c0,-2.095 -0.257,-3.702 -0.771,-4.821c-0.513,-1.118 -1.556,-1.677 -3.128,-1.677c-2.519,0 -5.048,0.826 -7.587,2.478c0.161,0.947 0.242,2.106 0.242,3.476l0,15.053c0,0.504 0.05,0.826 0.151,0.967c0.101,0.141 0.373,0.232 0.816,0.272l2.872,0.424l0,3.959l-15.235,0l0,-3.899l3.265,-0.423c0.403,-0.04 0.67,-0.156 0.801,-0.348c0.131,-0.191 0.196,-0.488 0.196,-0.891l0,-14.237c0,-1.108 -0.03,-1.995 -0.09,-2.66c-0.061,-0.665 -0.202,-1.36 -0.423,-2.086c-0.222,-0.725 -0.615,-1.264 -1.179,-1.617c-0.565,-0.353 -1.28,-0.529 -2.146,-0.529c-2.439,0 -4.998,1.058 -7.678,3.174l0,17.894c0,0.504 0.055,0.826 0.166,0.967c0.111,0.141 0.388,0.232 0.831,0.272l3.023,0.424l0,3.959l-15.083,0l0,-3.899l2.962,-0.484c0.403,-0.04 0.67,-0.146 0.801,-0.317c0.131,-0.171 0.197,-0.479 0.197,-0.922l0,-19.949c0,-0.706 -0.272,-1.139 -0.816,-1.3l-3.416,-1.179Z" style="fill:#fff;fill-rule:nonzero;"/><path d="M276.161,31.073c0,-5.36 1.36,-9.441 4.081,-12.242c2.72,-2.801 6.227,-4.201 10.519,-4.201c8.745,0 13.118,4.967 13.118,14.901c0,1.23 -0.06,2.429 -0.181,3.597l-19.98,0c0.161,3.023 0.902,5.305 2.222,6.847c1.319,1.541 3.42,2.312 6.302,2.312c2.599,0 5.632,-0.725 9.098,-2.176l1.995,4.957c-3.788,1.935 -7.748,2.912 -11.879,2.932c-10.197,-0.02 -15.295,-5.662 -15.295,-16.927Zm7.617,-3.083l12.998,0c0,-5.32 -2.046,-7.98 -6.136,-7.98c-1.894,0 -3.471,0.66 -4.731,1.98c-1.259,1.32 -1.969,3.32 -2.131,6Z" style="fill:#fff;fill-rule:nonzero;"/><path d="M323.5,13.814l0,-11.396l38.207,0l0,11.396l-5.139,0l-0.997,-5.381c-0.081,-0.463 -0.414,-0.695 -0.998,-0.695l-8.343,0l0,33.824c0,0.463 0.051,0.76 0.152,0.891c0.1,0.131 0.382,0.217 0.846,0.257l6.801,0.514l0,4.02l-22.428,0l0,-4.02l6.378,-0.423c0.403,-0.04 0.67,-0.136 0.801,-0.287c0.131,-0.151 0.196,-0.469 0.196,-0.952l0,-33.824l-8.282,0c-0.584,0 -0.917,0.232 -0.998,0.695l-0.997,5.381l-5.199,0Z" style="fill:#fff;fill-rule:nonzero;"/><path d="M360.77,31.073c0,-5.36 1.36,-9.441 4.08,-12.242c2.721,-2.801 6.227,-4.201 10.519,-4.201c8.746,0 13.118,4.967 13.118,14.901c0,1.23 -0.06,2.429 -0.181,3.597l-19.98,0c0.161,3.023 0.902,5.305 2.222,6.847c1.32,1.541 3.421,2.312 6.302,2.312c2.6,0 5.632,-0.725 9.098,-2.176l1.995,4.957c-3.788,1.935 -7.748,2.912 -11.879,2.932c-10.196,-0.02 -15.294,-5.662 -15.294,-16.927Zm7.617,-3.083l12.997,0c0,-5.32 -2.045,-7.98 -6.136,-7.98c-1.894,0 -3.471,0.66 -4.73,1.98c-1.26,1.32 -1.97,3.32 -2.131,6Z" style="fill:#fff;fill-rule:nonzero;"/><path d="M391.394,47.244l0,-3.899l2.841,-0.544c0.706,-0.121 1.32,-0.494 1.844,-1.118l8.494,-10.157l-8.494,-10.518c-0.463,-0.545 -0.957,-0.897 -1.481,-1.058l-2.6,-0.696l0.635,-4.02l14.297,0l0,4.02l-3.476,0.514l5.743,7.345l6.257,-7.345l-3.778,-0.514l0.635,-4.02l12.695,0l0,4.02l-2.72,0.635c-0.585,0.202 -1.149,0.595 -1.693,1.179l-7.98,9.401l8.917,11.153c0.584,0.665 1.139,1.028 1.662,1.088l3.114,0.575l0,3.959l-15.869,0l0,-3.959l3.476,-0.575l-6.015,-7.859l-6.378,7.859l3.778,0.575l0,3.959l-13.904,0Z" style="fill:#fff;fill-rule:nonzero;"/><path d="M428.71,19.503l0,-4.383c2.317,-0.282 4.05,-1.189 5.199,-2.72c1.149,-1.531 1.935,-2.939 2.358,-5.841l4.504,0l0,8.071c0,0.403 0.171,0.604 0.513,0.604l8.978,0l0,5.078l-9.491,0l0,16.837c0,1.934 0.322,3.294 0.967,4.08c0.645,0.786 1.813,1.179 3.506,1.179c1.572,0 3.365,-0.353 5.38,-1.058l1.421,4.474c-3.143,1.451 -6.196,2.176 -9.159,2.176c-3.224,0 -5.566,-0.725 -7.027,-2.176c-1.461,-1.451 -2.192,-3.718 -2.192,-6.801l0,-18.076c0,-0.403 -0.213,-0.518 -0.507,-0.703c-1.012,-0.634 -4.45,-0.741 -4.45,-0.741Z" style="fill:#fff;fill-rule:nonzero;"/></g><g><path d="M35.995,26.563c0,-0.548 -0.405,-0.864 -0.902,-0.707l-34.191,10.842c-0.498,0.158 -0.902,0.731 -0.902,1.278l0,11.081c0,0.548 0.404,0.865 0.902,0.707l34.191,-10.841c0.497,-0.158 0.902,-0.731 0.902,-1.279l0,-11.081Z" style="fill:url(#_Linear1);"/><path d="M0,26.21c0,0.548 0.404,1.121 0.902,1.279l34.196,10.843c0.498,0.158 0.902,-0.159 0.902,-0.706l0,-11.082c0,-0.547 -0.404,-1.12 -0.902,-1.278l-34.196,-10.843c-0.498,-0.158 -0.902,0.158 -0.902,0.706l0,11.081Z" style="fill:#ff9800;"/><path d="M35.995,3.793c0,-0.548 -0.405,-0.865 -0.902,-0.707l-34.191,10.841c-0.498,0.158 -0.902,0.731 -0.902,1.279l0,11.081c0,0.548 0.404,0.864 0.902,0.707l34.191,-10.842c0.497,-0.158 0.902,-0.731 0.902,-1.278l0,-11.081Z" style="fill:#ff9800;"/></g></g><defs><linearGradient id="_Linear1" x1="0" y1="0" x2="1" y2="0" gradientUnits="userSpaceOnUse" gradientTransform="matrix(3.08228,-10.3064,8.72379,3.56577,19.8394,42.498)"><stop offset="0" style="stop-color:#ff9700;stop-opacity:1"/><stop offset="0.53" style="stop-color:#f48e00;stop-opacity:1"/><stop offset="1" style="stop-color:#ce6e00;stop-opacity:1"/></linearGradient></defs></svg>