<?xml version="1.0" encoding="UTF-8" standalone="no"?><!DOCTYPE svg PUBLIC "-//W3C//DTD SVG 1.1//EN" "http://www.w3.org/Graphics/SVG/1.1/DTD/svg11.dtd"><svg width="100%" height="100%" viewBox="0 0 512 512" version="1.1" xmlns="http://www.w3.org/2000/svg" xmlns:xlink="http://www.w3.org/1999/xlink" xml:space="preserve" xmlns:serif="http://www.serif.com/" style="fill-rule:evenodd;clip-rule:evenodd;stroke-linejoin:round;stroke-miterlimit:1.41421;"><g><g id="Windows-Linux--Filled-" serif:id="Windows/Linux (Filled)"><g><g><path d="M512,32c0,-17.661 -14.339,-32 -32,-32l-448,0c-17.661,0 -32,14.339 -32,32l0,448c0,17.661 14.339,32 32,32l448,0c17.661,0 32,-14.339 32,-32l0,-448Z" style="fill:url(#_Linear1);"/></g><g><path d="M267.28,302.244c-1.554,0.11 -3.154,-0.292 -4.528,-1.254l-159.762,-111.866c-3.18,-2.227 -3.954,-6.616 -1.727,-9.796l45.044,-64.329c2.226,-3.18 6.616,-3.954 9.796,-1.728l137.739,96.446l79.913,0c1.972,0 3.755,0.813 5.032,2.121c0.187,0.192 2.334,2.118 5.28,5.311l33.883,33.882c2.745,2.745 2.745,7.203 0,9.948l-35.623,35.622l0,-0.038c-2.09,2.255 -3.511,3.607 -3.659,3.751c-1.268,1.238 -3.002,2.002 -4.913,2.002l-106.424,0l-0.051,-0.072Z" style="fill:#88d9d9;"/><path d="M267.302,209.758l0.029,-0.041l106.424,0c1.911,0 3.645,0.764 4.913,2.002c0.149,0.146 1.597,1.522 3.72,3.817l0,-0.066l35.562,35.561c2.745,2.745 2.745,7.203 0,9.948l-33.62,33.619c-3.081,3.363 -5.35,5.4 -5.543,5.597c-1.277,1.308 -3.06,2.121 -5.032,2.121l-79.961,0l-137.691,96.413c-3.18,2.226 -7.57,1.452 -9.796,-1.728l-45.044,-64.329c-2.227,-3.18 -1.453,-7.569 1.727,-9.796l159.762,-111.866c1.381,-0.967 2.989,-1.368 4.55,-1.252Z" style="fill:#00e6e7;"/></g></g></g><rect id="_-Rectangle-" serif:id="(Rectangle)" x="0" y="0" width="512" height="512" style="fill:none;"/></g><defs><linearGradient id="_Linear1" x1="0" y1="0" x2="1" y2="0" gradientUnits="userSpaceOnUse" gradientTransform="matrix(2.69694e-14,440.444,-440.444,2.69694e-14,236.286,25.0726)"><stop offset="0" style="stop-color:#4d4d4d;stop-opacity:1"/><stop offset="1" style="stop-color:#404040;stop-opacity:1"/></linearGradient></defs></svg>